<?xml version="1.0" encoding="UTF-8" standalone="no"?><svg xmlns="http://www.w3.org/2000/svg" xmlns:xlink="http://www.w3.org/1999/xlink" contentScriptType="application/ecmascript" contentStyleType="text/css" height="358px" preserveAspectRatio="none" style="width:363px;height:358px;" version="1.1" viewBox="0 0 363 358"
    width="363px" zoomAndPan="magnify"><defs><filter height="300%" id="f1c0qtuvpf7hnk" width="300%" x="-1" y="-1"><feGaussianBlur result="blurOut" stdDeviation="2.0"/><feColorMatrix in="blurOut" result="blurOut2" type="matrix" values="0 0 0 0 0 0 0 0 0 0 0 0 0 0 0 0 0 0 .4 0"/><feOffset dx="4.0" dy="4.0" in="blurOut2" result="blurOut3"/><feBlend in="SourceGraphic" in2="blurOut3" mode="normal"/></filter></defs><g><!--class AbstractList--><rect fill="#FEFECE" filter="url(#f1c0qtuvpf7hnk)" height="48" id="AbstractList" style="stroke: #A80036; stroke-width: 1.5;" width="96" x="173" y="161"/><ellipse cx="188" cy="177" fill="#A9DCDF" rx="11" ry="11" style="stroke: #A80036; stroke-width: 1.0;"/><path d="M188.375,176.9844 L186.3906,176.9844 L185.7969,179.5 Q185.6563,180.1094 185.7891,180.4688 Q185.9219,180.8281 185.9219,180.8281 L186.5938,180.8281 L186.5938,181.2344 L183.1406,181.2344 L183.1406,180.8281 L183.3281,180.8281 Q183.5938,180.8281 183.7969,180.6641 Q184,180.5 184.0625,180.1094 L186.6563,169.9375 L188.5313,169.3281 L191.1719,180.1094 Q191.3125,180.5 191.5078,180.6641 Q191.7031,180.8281 191.7031,180.8281 L192.1719,180.8281 L192.1719,181.2344 L188.3125,181.2344 L188.3125,180.8281 L188.5781,180.8281 Q188.9844,180.8281 189.0781,180.6016 Q189.1719,180.375 189.0469,179.9063 L188.375,176.9844 Z M186.9844,171.0781 L186.9844,171.0781 L186.5313,176.5781 L188.3125,176.5781 L186.9844,171.0781 Z "/><text fill="#000000" font-family="sans-serif" font-size="12" font-style="italic" lengthAdjust="spacingAndGlyphs" textLength="64" x="202" y="182.5576">AbstractList</text><line style="stroke: #A80036; stroke-width: 1.5;" x1="174" x2="268" y1="193" y2="193"/><line style="stroke: #A80036; stroke-width: 1.5;" x1="174" x2="268" y1="201" y2="201"/><!--class AbstractCollection--><rect fill="#FEFECE" filter="url(#f1c0qtuvpf7hnk)" height="48" id="AbstractCollection" style="stroke: #A80036; stroke-width: 1.5;" width="132" x="6" y="161"/><ellipse cx="21" cy="177" fill="#A9DCDF" rx="11" ry="11" style="stroke: #A80036; stroke-width: 1.0;"/><path d="M21.375,176.9844 L19.3906,176.9844 L18.7969,179.5 Q18.6563,180.1094 18.7891,180.4688 Q18.9219,180.8281 18.9219,180.8281 L19.5938,180.8281 L19.5938,181.2344 L16.1406,181.2344 L16.1406,180.8281 L16.3281,180.8281 Q16.5938,180.8281 16.7969,180.6641 Q17,180.5 17.0625,180.1094 L19.6563,169.9375 L21.5313,169.3281 L24.1719,180.1094 Q24.3125,180.5 24.5078,180.6641 Q24.7031,180.8281 24.7031,180.8281 L25.1719,180.8281 L25.1719,181.2344 L21.3125,181.2344 L21.3125,180.8281 L21.5781,180.8281 Q21.9844,180.8281 22.0781,180.6016 Q22.1719,180.375 22.0469,179.9063 L21.375,176.9844 Z M19.9844,171.0781 L19.9844,171.0781 L19.5313,176.5781 L21.3125,176.5781 L19.9844,171.0781 Z "/><text fill="#000000" font-family="sans-serif" font-size="12" font-style="italic" lengthAdjust="spacingAndGlyphs" textLength="100" x="35" y="182.5576">AbstractCollection</text><line style="stroke: #A80036; stroke-width: 1.5;" x1="7" x2="137" y1="193" y2="193"/><line style="stroke: #A80036; stroke-width: 1.5;" x1="7" x2="137" y1="201" y2="201"/><!--class List--><rect fill="#FEFECE" filter="url(#f1c0qtuvpf7hnk)" height="48" id="List" style="stroke: #A80036; stroke-width: 1.5;" width="51" x="183.5" y="30.5"/><ellipse cx="198.5" cy="46.5" fill="#B4A7E5" rx="11" ry="11" style="stroke: #A80036; stroke-width: 1.0;"/><path d="M195.0938,40.7813 L195.0938,40.375 L201.4063,40.375 L201.4063,40.7813 L198.875,40.7813 Q198.875,40.7813 199.0234,40.9141 Q199.1719,41.0469 199.1719,41.3125 L199.1719,50.7969 Q199.1719,51.0625 199.3906,51.1953 Q199.6094,51.3281 199.6094,51.3281 L201.4063,51.3281 L201.4063,51.7344 L195.0938,51.7344 L195.0938,51.3281 L196.625,51.3281 Q196.9531,51.3281 197.0859,51.1953 Q197.2188,51.0625 197.2188,50.7969 L197.2188,41.3125 Q197.2188,41.0469 197.0859,40.9141 Q196.9531,40.7813 196.625,40.7813 L195.0938,40.7813 Z "/><text fill="#000000" font-family="sans-serif" font-size="12" font-style="italic" lengthAdjust="spacingAndGlyphs" textLength="19" x="212.5" y="52.0576">List</text><line style="stroke: #A80036; stroke-width: 1.5;" x1="184.5" x2="233.5" y1="62.5" y2="62.5"/><line style="stroke: #A80036; stroke-width: 1.5;" x1="184.5" x2="233.5" y1="70.5" y2="70.5"/><!--class Collection--><rect fill="#FEFECE" filter="url(#f1c0qtuvpf7hnk)" height="48" id="Collection" style="stroke: #A80036; stroke-width: 1.5;" width="87" x="39.5" y="30.5"/><ellipse cx="54.5" cy="46.5" fill="#B4A7E5" rx="11" ry="11" style="stroke: #A80036; stroke-width: 1.0;"/><path d="M51.0938,40.7813 L51.0938,40.375 L57.4063,40.375 L57.4063,40.7813 L54.875,40.7813 Q54.875,40.7813 55.0234,40.9141 Q55.1719,41.0469 55.1719,41.3125 L55.1719,50.7969 Q55.1719,51.0625 55.3906,51.1953 Q55.6094,51.3281 55.6094,51.3281 L57.4063,51.3281 L57.4063,51.7344 L51.0938,51.7344 L51.0938,51.3281 L52.625,51.3281 Q52.9531,51.3281 53.0859,51.1953 Q53.2188,51.0625 53.2188,50.7969 L53.2188,41.3125 Q53.2188,41.0469 53.0859,40.9141 Q52.9531,40.7813 52.625,40.7813 L51.0938,40.7813 Z "/><text fill="#000000" font-family="sans-serif" font-size="12" font-style="italic" lengthAdjust="spacingAndGlyphs" textLength="55" x="68.5" y="52.0576">Collection</text><line style="stroke: #A80036; stroke-width: 1.5;" x1="40.5" x2="125.5" y1="62.5" y2="62.5"/><line style="stroke: #A80036; stroke-width: 1.5;" x1="40.5" x2="125.5" y1="70.5" y2="70.5"/><!--class ArrayList--><rect fill="#FEFECE" filter="url(#f1c0qtuvpf7hnk)" height="78.0459" id="ArrayList" style="stroke: #A80036; stroke-width: 1.5;" width="111" x="165.5" y="269"/><ellipse cx="194.9" cy="285" fill="#ADD1B2" rx="11" ry="11" style="stroke: #A80036; stroke-width: 1.0;"/><path d="M193.4781,290.3594 Q191.6188,290.3594 190.525,288.9688 Q189.4313,287.5781 189.4313,284.5938 Q189.4313,282.0625 190.5953,280.4063 Q191.7594,278.75 193.7438,278.75 Q195.2125,278.75 195.6813,278.9141 Q196.15,279.0781 196.15,279.0781 Q196.15,279.0781 196.15,279.0078 Q196.15,278.9375 196.7594,278.0156 L197.8063,281.6719 L196.4781,282.0781 Q196.0094,280.5313 195.3453,279.8672 Q194.6813,279.2031 193.6188,279.2031 Q193.2281,279.2031 192.4625,280.7344 Q191.6969,282.2656 191.6969,284.5156 Q191.6969,286.9844 192.3609,288.375 Q193.025,289.7656 193.5563,289.7656 Q194.6188,289.7656 195.3766,289 Q196.1344,288.2344 196.4781,286.5781 L197.8063,287.1719 Q197.4781,288.5781 196.5797,289.4688 Q195.6813,290.3594 193.4781,290.3594 Z "/><text fill="#000000" font-family="sans-serif" font-size="12" lengthAdjust="spacingAndGlyphs" textLength="47" x="212.1" y="290.5576">ArrayList</text><line style="stroke: #A80036; stroke-width: 1.5;" x1="166.5" x2="275.5" y1="301" y2="301"/><text fill="#000000" font-family="sans-serif" font-size="11" lengthAdjust="spacingAndGlyphs" textLength="99" x="171.5" y="317.606">Object[] elementData</text><line style="stroke: #A80036; stroke-width: 1.5;" x1="166.5" x2="275.5" y1="324.0229" y2="324.0229"/><text fill="#000000" font-family="sans-serif" font-size="11" lengthAdjust="spacingAndGlyphs" textLength="28" x="171.5" y="340.6289">size()</text><!--class TimeUnit--><rect fill="#FEFECE" filter="url(#f1c0qtuvpf7hnk)" height="93.0688" id="TimeUnit" style="stroke: #A80036; stroke-width: 1.5;" width="82" x="270" y="8"/><ellipse cx="285" cy="24" fill="#EB937F" rx="11" ry="11" style="stroke: #A80036; stroke-width: 1.0;"/><path d="M281.5313,18.2813 L281.5313,17.875 L289.0469,17.875 L289.7656,20.1406 L288.5938,20.5938 Q287.9063,19.2656 287.3125,18.7734 Q286.7188,18.2813 285.9844,18.2813 L284.125,18.2813 Q284.125,18.2813 284.2578,18.4141 Q284.3906,18.5469 284.3906,18.8125 L284.3906,22.9219 L285.4531,22.9219 Q286.1094,22.9219 286.4141,22.5938 Q286.7188,22.2656 286.7188,21.5938 L286.7188,21.2031 L288.1094,21.2031 L288.1094,25.1094 L286.7188,25.1094 L286.7188,24.8438 Q286.7188,24.125 286.4141,23.7266 Q286.1094,23.3281 285.4531,23.3281 L284.5313,23.3281 L284.5313,28.2969 Q284.5313,28.5625 284.6953,28.6953 Q284.8594,28.8281 284.8594,28.8281 L285.8438,28.8281 Q286.8438,28.8281 287.5391,28.2656 Q288.2344,27.7031 288.75,26.1875 L289.9688,26.6406 L289.2344,29.2344 L281.4688,29.2344 L281.4688,28.8281 L281.8594,28.8281 Q282.2031,28.8281 282.3359,28.6953 Q282.4688,28.5625 282.4688,28.2969 L282.4688,18.8125 Q282.4688,18.5469 282.3359,18.4141 Q282.2031,18.2813 281.8594,18.2813 L281.5313,18.2813 Z "/><text fill="#000000" font-family="sans-serif" font-size="12" lengthAdjust="spacingAndGlyphs" textLength="50" x="299" y="29.5576">TimeUnit</text><line style="stroke: #A80036; stroke-width: 1.5;" x1="271" x2="351" y1="40" y2="40"/><text fill="#000000" font-family="sans-serif" font-size="11" lengthAdjust="spacingAndGlyphs" textLength="30" x="276" y="56.606">DAYS</text><text fill="#000000" font-family="sans-serif" font-size="11" lengthAdjust="spacingAndGlyphs" textLength="36" x="276" y="71.6289">HOURS</text><text fill="#000000" font-family="sans-serif" font-size="11" lengthAdjust="spacingAndGlyphs" textLength="43" x="276" y="86.6519">MINUTES</text><line style="stroke: #A80036; stroke-width: 1.5;" x1="271" x2="351" y1="93.0688" y2="93.0688"/><!--link List to AbstractList--><path d="M213.045,98.817 C214.986,119.6 217.233,143.664 218.843,160.903 " fill="none" id="List-AbstractList" style="stroke: #A80036; stroke-width: 1.0;"/><polygon fill="none" points="206.063,99.335,211.173,78.77,220.002,98.033,206.063,99.335" style="stroke: #A80036; stroke-width: 1.0;"/><!--link Collection to AbstractCollection--><path d="M79.2919,98.817 C77.5128,119.6 75.4529,143.664 73.9772,160.903 " fill="none" id="Collection-AbstractCollection" style="stroke: #A80036; stroke-width: 1.0;"/><polygon fill="none" points="72.3276,98.1,81.008,78.77,86.2766,99.295,72.3276,98.1" style="stroke: #A80036; stroke-width: 1.0;"/><!--link Collection to List--><path d="M147.113,54.5 C159.18,54.5 171.247,54.5 183.314,54.5 " fill="none" id="Collection-List" style="stroke: #A80036; stroke-width: 1.0;"/><polygon fill="none" points="146.805,61.5,126.805,54.5,146.805,47.5,146.805,61.5" style="stroke: #A80036; stroke-width: 1.0;"/><!--link AbstractCollection to AbstractList--><path d="M158.102,185 C162.977,185 167.852,185 172.727,185 " fill="none" id="AbstractCollection-AbstractList" style="stroke: #A80036; stroke-width: 1.0;"/><polygon fill="none" points="158.061,192,138.061,185,158.061,178,158.061,192" style="stroke: #A80036; stroke-width: 1.0;"/><!--link AbstractList to ArrayList--><path d="M221,229.245 C221,242.168 221,256.2378 221,268.8122 " fill="none" id="AbstractList-ArrayList" style="stroke: #A80036; stroke-width: 1.0;"/><polygon fill="none" points="214,229.044,221,209.044,228,229.044,214,229.044" style="stroke: #A80036; stroke-width: 1.0;"/><!--
@startuml

  abstract class AbstractList
  abstract AbstractCollection
  interface List
  interface Collection

  List <|- - AbstractList
  Collection <|- - AbstractCollection

  Collection <|- List
  AbstractCollection <|- AbstractList
  AbstractList <|- - ArrayList

  class ArrayList {
  Object[] elementData
  size()
  }

  enum TimeUnit {
  DAYS
  HOURS
  MINUTES
  }

  @enduml

PlantUML version 1.2018.00(Fri Jan 05 03:42:56 CST 2018)
(GPL source distribution)
Java Runtime: Java(TM) SE Runtime Environment
JVM: Java HotSpot(TM) 64-Bit Server VM
Java Version: 1.8.0_144-b01
Operating System: Windows 7
OS Version: 6.1
Default Encoding: GBK
Language: zh
Country: CN
--></g></svg>